Release Date: 4 August 1989 (USA)

Genre: Action | Crime | Thriller

Plot: Frank Leone is nearing the end of his prison term for a relatively minor crime. Just before he is paroled, however, Warden Drumgoole takes charge. Drumgoole was assigned to a hell-hole prison after his administration was publicly humiliated by Leone, and has now arrived on the scene to ensure that Leone never sees the light of day.

Cast:
Sylvester Stallone ... Frank Leone
Donald Sutherland ... Warden Drumgoole
John Amos ... Captain Meissner
Sonny Landham ... Chink Weber
Tom Sizemore ... Dallas
Frank McRae ... Eclipse
Darlanne Fluegel ... Melissa
William Allen Young ... Braden
Larry Romano ... First Base
Jordan Lund ... Manly
John Lilla ... Wiley
Dean Rader-Duval ... Ernie (as Dean Duval)
Jerry Strivelli ... Louie Munafo
David Anthony Marshall ... Mastrone
Kurek Ashley ... Chink's Gang Member


File Name

Lock Up 1989 1040p BRRip H264.mp4

File Size
Format : MPEG-4
Format profile : Base Media
Codec ID : isom
File size : 3.71 GiB
Duration : 1h 48mn
Overall bit rate : 4 891 Kbps

Video
ID : 1
Format : AVC
Format/Info : Advanced Video Codec
Format profile : High@L4.1
Format settings, CABAC : Yes
Format settings, ReFrames : 3 frames
Codec ID : avc1
Codec ID/Info : Advanced Video Coding
Duration : 1h 48mn
Bit rate mode : Variable
Bit rate : 4 249 Kbps
Maximum bit rate : 12.6 Mbps
Width : 1 920 pixels
Height : 1 040 pixels
Display aspect ratio : 16:9
Frame rate mode : Constant
Frame rate : 24.000 fps
Resolution : 24 bits
Colorimetry : 4:2:0
Scan type : Progressive
Bits/(Pixel*Frame) : 0.089
Stream size : 3.22 GiB (87%)

Audio #1
ID : 2
Format : AAC
Format/Info : Advanced Audio Codec
Format version : Version 4
Format profile : LC
Format settings, SBR : No
Codec ID : 40
Duration : 1h 48mn
Bit rate mode : Variable
Bit rate : 192 Kbps
Maximum bit rate : 200 Kbps
Channel(s) : 2 channels
Channel positions : L R
Sampling rate : 48.0 KHz
Resolution : 16 bits
Stream size : 148 MiB (4%)

Audio #2
ID : 3
Format : AAC
Format/Info : Advanced Audio Codec
Format version : Version 4
Format profile : LC
Format settings, SBR : No
Codec ID : 40
Duration : 1h 48mn
Bit rate mode : Variable
Bit rate : 448 Kbps
Maximum bit rate : 461 Kbps
Channel(s) : 6 channels
Channel positions : Front: L C R, Rear: L R, LFE
Sampling rate : 48.0 KHz
Resolution : 16 bits
Stream size : 347 MiB (9%)

English SRT : ----

Language : English
 
http://www.imdb.com/title/tt0097770/